<svg xmlns="http://www.w3.org/2000/svg" width="23" height="23" viewBox="0 0 23 23">
  <path fill="#2e3436" d="M 11.5 7.820312 C 11.5 12.113281 5.058594 12.113281 5.058594 7.820312 C 5.058594 3.527344 11.5 3.527344 11.5 7.820312 "/>
  <path fill="#2e3436" d="M 17.941406 7.820312 C 17.941406 12.113281 11.5 12.113281 11.5 7.820312 C 11.5 3.527344 17.941406 3.527344 17.941406 7.820312 "/>
  <path fill="#2e3436" d="M 11.5 14.261719 C 11.5 18.554688 5.058594 18.554688 5.058594 14.261719 C 5.058594 9.964844 11.5 9.964844 11.5 14.261719 "/>
  <path fill="#2e3436" d="M 17.941406 14.261719 C 17.941406 18.554688 11.5 18.554688 11.5 14.261719 C 11.5 9.964844 17.941406 9.964844 17.941406 14.261719 "/>
  <path fill="#2e3436" d="M12.289179 14.336846Q13.488902 14.87662 13.672367 15.77837Q13.844786 16.625828 13.07352 17.48398Q12.151342 18.510044 9.556581 19.805588Q9.414209 19.876671 9.255474 19.887861Q9.096739 19.899052 8.945805 19.848644Q8.79487 19.798237 8.674714 19.693908Q8.554558 19.589579 8.483474 19.447208Q8.41239 19.304838 8.401199 19.146102Q8.390008 18.987366 8.440414 18.836431Q8.49082 18.685495 8.59515 18.565339Q8.699479 18.445183 8.841849 18.3741Q11.16458 17.214378 11.883512 16.414457Q12.037504 16.243116 12.088799 16.120985Q12.100936 16.092089 12.10283 16.077505Q12.101902 16.08465 12.104488 16.097363Q12.106662 16.108046 12.108003 16.110319Q12.095481 16.089087 12.062181 16.057127Q11.928932 15.929246 11.632698 15.795966Q11.487578 15.730674 11.378492 15.614818Q11.269405 15.498962 11.212959 15.35018Q11.156513 15.201398 11.1613 15.042341Q11.166086 14.883284 11.231378 14.738165Q11.296669 14.593046 11.412524 14.48396Q11.528379 14.374874 11.677161 14.318427Q11.825943 14.26198 11.985001 14.266767Q12.144058 14.271554 12.289179 14.336846Z"/>
</svg>
